<?xml version="1.0" encoding="UTF-8" standalone="no"?>
<!DOCTYPE svg PUBLIC "-//W3C//DTD SVG 1.1//EN"
 "http://www.w3.org/Graphics/SVG/1.1/DTD/svg11.dtd">
<!-- Generated by graphviz version 2.44.1 (20200629.0846)
 -->
<!-- Pages: 1 -->
<svg width="2486pt" height="548pt"
 viewBox="0.00 0.00 2486.07 548.00" xmlns="http://www.w3.org/2000/svg" xmlns:xlink="http://www.w3.org/1999/xlink">
<g id="graph0" class="graph" transform="scale(1 1) rotate(0) translate(4 544)">
<polygon fill="white" stroke="transparent" points="-4,4 -4,-544 2482.07,-544 2482.07,4 -4,4"/>
<!-- [root] google_bigquery_dataset.default (expand) -->
<g id="node1" class="node">
<title>[root] google_bigquery_dataset.default (expand)</title>
<polygon fill="none" stroke="black" points="697.38,-180 503.38,-180 503.38,-144 697.38,-144 697.38,-180"/>
<text text-anchor="middle" x="600.38" y="-158.3" font-family="Times,serif" font-size="14.00">google_bigquery_dataset.default</text>
</g>
<!-- [root] provider[&quot;registry.terraform.io/hashicorp/google&quot;] -->
<g id="node9" class="node">
<title>[root] provider[&quot;registry.terraform.io/hashicorp/google&quot;]</title>
<polygon fill="none" stroke="black" points="1095.38,-108 828.77,-90 1095.38,-72 1362,-90 1095.38,-108"/>
<text text-anchor="middle" x="1095.38" y="-86.3" font-family="Times,serif" font-size="14.00">provider[&quot;registry.terraform.io/hashicorp/google&quot;]</text>
</g>
<!-- [root] google_bigquery_dataset.default (expand)&#45;&gt;[root] provider[&quot;registry.terraform.io/hashicorp/google&quot;] -->
<g id="edge1" class="edge">
<title>[root] google_bigquery_dataset.default (expand)&#45;&gt;[root] provider[&quot;registry.terraform.io/hashicorp/google&quot;]</title>
<path fill="none" stroke="black" d="M697.42,-145.34C700.44,-144.89 703.43,-144.44 706.38,-144 805.75,-129.26 919.64,-113.93 998.39,-103.57"/>
<polygon fill="black" stroke="black" points="999.32,-106.98 1008.78,-102.2 998.41,-100.04 999.32,-106.98"/>
</g>
<!-- [root] var.bq_dataset -->
<g id="node10" class="node">
<title>[root] var.bq_dataset</title>
<polygon fill="none" stroke="black" points="510.88,-108 421.88,-108 421.88,-72 516.88,-72 516.88,-102 510.88,-108"/>
<polyline fill="none" stroke="black" points="510.88,-108 510.88,-102 "/>
<polyline fill="none" stroke="black" points="516.88,-102 510.88,-102 "/>
<text text-anchor="middle" x="469.38" y="-86.3" font-family="Times,serif" font-size="14.00">var.bq_dataset</text>
</g>
<!-- [root] google_bigquery_dataset.default (expand)&#45;&gt;[root] var.bq_dataset -->
<g id="edge2" class="edge">
<title>[root] google_bigquery_dataset.default (expand)&#45;&gt;[root] var.bq_dataset</title>
<path fill="none" stroke="black" d="M568.34,-143.88C550.89,-134.55 529.12,-122.92 510.44,-112.94"/>
<polygon fill="black" stroke="black" points="512.02,-109.82 501.55,-108.19 508.72,-115.99 512.02,-109.82"/>
</g>
<!-- [root] var.bq_dataset_name -->
<g id="node11" class="node">
<title>[root] var.bq_dataset_name</title>
<polygon fill="none" stroke="black" points="659.88,-108 534.88,-108 534.88,-72 665.88,-72 665.88,-102 659.88,-108"/>
<polyline fill="none" stroke="black" points="659.88,-108 659.88,-102 "/>
<polyline fill="none" stroke="black" points="665.88,-102 659.88,-102 "/>
<text text-anchor="middle" x="600.38" y="-86.3" font-family="Times,serif" font-size="14.00">var.bq_dataset_name</text>
</g>
<!-- [root] google_bigquery_dataset.default (expand)&#45;&gt;[root] var.bq_dataset_name -->
<g id="edge3" class="edge">
<title>[root] google_bigquery_dataset.default (expand)&#45;&gt;[root] var.bq_dataset_name</title>
<path fill="none" stroke="black" d="M600.38,-143.7C600.38,-135.98 600.38,-126.71 600.38,-118.11"/>
<polygon fill="black" stroke="black" points="603.88,-118.1 600.38,-108.1 596.88,-118.1 603.88,-118.1"/>
</g>
<!-- [root] var.dataprocbuckloc -->
<g id="node15" class="node">
<title>[root] var.dataprocbuckloc</title>
<polygon fill="none" stroke="black" points="804.38,-108 684.38,-108 684.38,-72 810.38,-72 810.38,-102 804.38,-108"/>
<polyline fill="none" stroke="black" points="804.38,-108 804.38,-102 "/>
<polyline fill="none" stroke="black" points="810.38,-102 804.38,-102 "/>
<text text-anchor="middle" x="747.38" y="-86.3" font-family="Times,serif" font-size="14.00">var.dataprocbuckloc</text>
</g>
<!-- [root] google_bigquery_dataset.default (expand)&#45;&gt;[root] var.dataprocbuckloc -->
<g id="edge4" class="edge">
<title>[root] google_bigquery_dataset.default (expand)&#45;&gt;[root] var.dataprocbuckloc</title>
<path fill="none" stroke="black" d="M636.34,-143.88C656.26,-134.39 681.21,-122.51 702.4,-112.42"/>
<polygon fill="black" stroke="black" points="704.02,-115.53 711.54,-108.07 701.01,-109.21 704.02,-115.53"/>
</g>
<!-- [root] google_bigquery_table.default (expand) -->
<g id="node2" class="node">
<title>[root] google_bigquery_table.default (expand)</title>
<polygon fill="none" stroke="black" points="691.38,-324 509.38,-324 509.38,-288 691.38,-288 691.38,-324"/>
<text text-anchor="middle" x="600.38" y="-302.3" font-family="Times,serif" font-size="14.00">google_bigquery_table.default</text>
</g>
<!-- [root] google_bigquery_table.default (expand)&#45;&gt;[root] google_bigquery_dataset.default (expand) -->
<g id="edge5" class="edge">
<title>[root] google_bigquery_table.default (expand)&#45;&gt;[root] google_bigquery_dataset.default (expand)</title>
<path fill="none" stroke="black" d="M600.38,-287.87C600.38,-263.67 600.38,-219.21 600.38,-190.39"/>
<polygon fill="black" stroke="black" points="603.88,-190.19 600.38,-180.19 596.88,-190.19 603.88,-190.19"/>
</g>
<!-- [root] google_compute_firewall.dataprocopen (expand) -->
<g id="node3" class="node">
<title>[root] google_compute_firewall.dataprocopen (expand)</title>
<polygon fill="none" stroke="black" points="946.38,-324 714.38,-324 714.38,-288 946.38,-288 946.38,-324"/>
<text text-anchor="middle" x="830.38" y="-302.3" font-family="Times,serif" font-size="14.00">google_compute_firewall.dataprocopen</text>
</g>
<!-- [root] google_compute_network.dataproc_network (expand) -->
<g id="node4" class="node">
<title>[root] google_compute_network.dataproc_network (expand)</title>
<polygon fill="none" stroke="black" points="975.38,-180 715.38,-180 715.38,-144 975.38,-144 975.38,-180"/>
<text text-anchor="middle" x="845.38" y="-158.3" font-family="Times,serif" font-size="14.00">google_compute_network.dataproc_network</text>
</g>
<!-- [root] google_compute_firewall.dataprocopen (expand)&#45;&gt;[root] google_compute_network.dataproc_network (expand) -->
<g id="edge6" class="edge">
<title>[root] google_compute_firewall.dataprocopen (expand)&#45;&gt;[root] google_compute_network.dataproc_network (expand)</title>
<path fill="none" stroke="black" d="M832.19,-287.87C834.75,-263.67 839.45,-219.21 842.49,-190.39"/>
<polygon fill="black" stroke="black" points="846,-190.5 843.57,-180.19 839.04,-189.77 846,-190.5"/>
</g>
<!-- [root] google_compute_network.dataproc_network (expand)&#45;&gt;[root] provider[&quot;registry.terraform.io/hashicorp/google&quot;] -->
<g id="edge7" class="edge">
<title>[root] google_compute_network.dataproc_network (expand)&#45;&gt;[root] provider[&quot;registry.terraform.io/hashicorp/google&quot;]</title>
<path fill="none" stroke="black" d="M906.22,-143.97C945.93,-132.85 997.48,-118.41 1036.74,-107.42"/>
<polygon fill="black" stroke="black" points="1037.76,-110.77 1046.44,-104.7 1035.87,-104.03 1037.76,-110.77"/>
</g>
<!-- [root] google_dataproc_cluster.tstdataprocclus (expand) -->
<g id="node5" class="node">
<title>[root] google_dataproc_cluster.tstdataprocclus (expand)</title>
<polygon fill="none" stroke="black" points="1613.88,-252 1380.88,-252 1380.88,-216 1613.88,-216 1613.88,-252"/>
<text text-anchor="middle" x="1497.38" y="-230.3" font-family="Times,serif" font-size="14.00">google_dataproc_cluster.tstdataprocclus</text>
</g>
<!-- [root] google_dataproc_cluster.tstdataprocclus (expand)&#45;&gt;[root] google_compute_network.dataproc_network (expand) -->
<g id="edge8" class="edge">
<title>[root] google_dataproc_cluster.tstdataprocclus (expand)&#45;&gt;[root] google_compute_network.dataproc_network (expand)</title>
<path fill="none" stroke="black" d="M1380.67,-221.57C1279.09,-211.48 1127.59,-196.07 985.79,-180.15"/>
<polygon fill="black" stroke="black" points="985.92,-176.64 975.6,-179 985.14,-183.6 985.92,-176.64"/>
</g>
<!-- [root] google_storage_bucket.tstdataprocbuck (expand) -->
<g id="node8" class="node">
<title>[root] google_storage_bucket.tstdataprocbuck (expand)</title>
<polygon fill="none" stroke="black" points="2085.88,-180 1854.88,-180 1854.88,-144 2085.88,-144 2085.88,-180"/>
<text text-anchor="middle" x="1970.38" y="-158.3" font-family="Times,serif" font-size="14.00">google_storage_bucket.tstdataprocbuck</text>
</g>
<!-- [root] google_dataproc_cluster.tstdataprocclus (expand)&#45;&gt;[root] google_storage_bucket.tstdataprocbuck (expand) -->
<g id="edge9" class="edge">
<title>[root] google_dataproc_cluster.tstdataprocclus (expand)&#45;&gt;[root] google_storage_bucket.tstdataprocbuck (expand)</title>
<path fill="none" stroke="black" d="M1612.49,-215.97C1682.87,-205.55 1772.94,-192.22 1845.11,-181.54"/>
<polygon fill="black" stroke="black" points="1845.79,-184.98 1855.17,-180.05 1844.77,-178.05 1845.79,-184.98"/>
</g>
<!-- [root] var.cluster_dp_name -->
<g id="node13" class="node">
<title>[root] var.cluster_dp_name</title>
<polygon fill="none" stroke="black" points="1830.38,-180 1706.38,-180 1706.38,-144 1836.38,-144 1836.38,-174 1830.38,-180"/>
<polyline fill="none" stroke="black" points="1830.38,-180 1830.38,-174 "/>
<polyline fill="none" stroke="black" points="1836.38,-174 1830.38,-174 "/>
<text text-anchor="middle" x="1771.38" y="-158.3" font-family="Times,serif" font-size="14.00">var.cluster_dp_name</text>
</g>
<!-- [root] google_dataproc_cluster.tstdataprocclus (expand)&#45;&gt;[root] var.cluster_dp_name -->
<g id="edge10" class="edge">
<title>[root] google_dataproc_cluster.tstdataprocclus (expand)&#45;&gt;[root] var.cluster_dp_name</title>
<path fill="none" stroke="black" d="M1564.06,-215.97C1604.1,-205.74 1655.13,-192.7 1696.54,-182.12"/>
<polygon fill="black" stroke="black" points="1697.48,-185.49 1706.3,-179.63 1695.75,-178.71 1697.48,-185.49"/>
</g>
<!-- [root] var.master_machine_type -->
<g id="node16" class="node">
<title>[root] var.master_machine_type</title>
<polygon fill="none" stroke="black" points="1144.88,-180 993.88,-180 993.88,-144 1150.88,-144 1150.88,-174 1144.88,-180"/>
<polyline fill="none" stroke="black" points="1144.88,-180 1144.88,-174 "/>
<polyline fill="none" stroke="black" points="1150.88,-174 1144.88,-174 "/>
<text text-anchor="middle" x="1072.38" y="-158.3" font-family="Times,serif" font-size="14.00">var.master_machine_type</text>
</g>
<!-- [root] google_dataproc_cluster.tstdataprocclus (expand)&#45;&gt;[root] var.master_machine_type -->
<g id="edge11" class="edge">
<title>[root] google_dataproc_cluster.tstdataprocclus (expand)&#45;&gt;[root] var.master_machine_type</title>
<path fill="none" stroke="black" d="M1381.83,-215.98C1319.13,-206.48 1240.03,-194.07 1161.19,-180.29"/>
<polygon fill="black" stroke="black" points="1161.53,-176.8 1151.08,-178.51 1160.32,-183.69 1161.53,-176.8"/>
</g>
<!-- [root] var.master_num_instances -->
<g id="node17" class="node">
<title>[root] var.master_num_instances</title>
<polygon fill="none" stroke="black" points="1323.88,-180 1168.88,-180 1168.88,-144 1329.88,-144 1329.88,-174 1323.88,-180"/>
<polyline fill="none" stroke="black" points="1323.88,-180 1323.88,-174 "/>
<polyline fill="none" stroke="black" points="1329.88,-174 1323.88,-174 "/>
<text text-anchor="middle" x="1249.38" y="-158.3" font-family="Times,serif" font-size="14.00">var.master_num_instances</text>
</g>
<!-- [root] google_dataproc_cluster.tstdataprocclus (expand)&#45;&gt;[root] var.master_num_instances -->
<g id="edge12" class="edge">
<title>[root] google_dataproc_cluster.tstdataprocclus (expand)&#45;&gt;[root] var.master_num_instances</title>
<path fill="none" stroke="black" d="M1437.03,-215.97C1401.63,-205.97 1356.73,-193.3 1319.72,-182.85"/>
<polygon fill="black" stroke="black" points="1320.58,-179.46 1310.01,-180.11 1318.68,-186.2 1320.58,-179.46"/>
</g>
<!-- [root] var.worker_machine_type -->
<g id="node19" class="node">
<title>[root] var.worker_machine_type</title>
<polygon fill="none" stroke="black" points="1500.38,-180 1348.38,-180 1348.38,-144 1506.38,-144 1506.38,-174 1500.38,-180"/>
<polyline fill="none" stroke="black" points="1500.38,-180 1500.38,-174 "/>
<polyline fill="none" stroke="black" points="1506.38,-174 1500.38,-174 "/>
<text text-anchor="middle" x="1427.38" y="-158.3" font-family="Times,serif" font-size="14.00">var.worker_machine_type</text>
</g>
<!-- [root] google_dataproc_cluster.tstdataprocclus (expand)&#45;&gt;[root] var.worker_machine_type -->
<g id="edge13" class="edge">
<title>[root] google_dataproc_cluster.tstdataprocclus (expand)&#45;&gt;[root] var.worker_machine_type</title>
<path fill="none" stroke="black" d="M1480.08,-215.7C1471.52,-207.14 1461.04,-196.66 1451.69,-187.3"/>
<polygon fill="black" stroke="black" points="1454.03,-184.7 1444.49,-180.1 1449.08,-189.65 1454.03,-184.7"/>
</g>
<!-- [root] var.worker_num_instances -->
<g id="node20" class="node">
<title>[root] var.worker_num_instances</title>
<polygon fill="none" stroke="black" points="1681.88,-180 1524.88,-180 1524.88,-144 1687.88,-144 1687.88,-174 1681.88,-180"/>
<polyline fill="none" stroke="black" points="1681.88,-180 1681.88,-174 "/>
<polyline fill="none" stroke="black" points="1687.88,-174 1681.88,-174 "/>
<text text-anchor="middle" x="1606.38" y="-158.3" font-family="Times,serif" font-size="14.00">var.worker_num_instances</text>
</g>
<!-- [root] google_dataproc_cluster.tstdataprocclus (expand)&#45;&gt;[root] var.worker_num_instances -->
<g id="edge14" class="edge">
<title>[root] google_dataproc_cluster.tstdataprocclus (expand)&#45;&gt;[root] var.worker_num_instances</title>
<path fill="none" stroke="black" d="M1524.05,-215.88C1538.17,-206.81 1555.7,-195.55 1570.94,-185.76"/>
<polygon fill="black" stroke="black" points="1573.09,-188.54 1579.62,-180.19 1569.31,-182.65 1573.09,-188.54"/>
</g>
<!-- [root] google_dataproc_job.pyspark_covid19 (expand) -->
<g id="node6" class="node">
<title>[root] google_dataproc_job.pyspark_covid19 (expand)</title>
<polygon fill="none" stroke="black" points="1191.88,-324 964.88,-324 964.88,-288 1191.88,-288 1191.88,-324"/>
<text text-anchor="middle" x="1078.38" y="-302.3" font-family="Times,serif" font-size="14.00">google_dataproc_job.pyspark_covid19</text>
</g>
<!-- [root] google_dataproc_job.pyspark_covid19 (expand)&#45;&gt;[root] google_dataproc_cluster.tstdataprocclus (expand) -->
<g id="edge15" class="edge">
<title>[root] google_dataproc_job.pyspark_covid19 (expand)&#45;&gt;[root] google_dataproc_cluster.tstdataprocclus (expand)</title>
<path fill="none" stroke="black" d="M1180.35,-287.97C1242.31,-277.61 1321.5,-264.38 1385.24,-253.74"/>
<polygon fill="black" stroke="black" points="1386.04,-257.15 1395.33,-252.05 1384.89,-250.25 1386.04,-257.15"/>
</g>
<!-- [root] google_dataproc_job.spark (expand) -->
<g id="node7" class="node">
<title>[root] google_dataproc_job.spark (expand)</title>
<polygon fill="none" stroke="black" points="1374.38,-324 1210.38,-324 1210.38,-288 1374.38,-288 1374.38,-324"/>
<text text-anchor="middle" x="1292.38" y="-302.3" font-family="Times,serif" font-size="14.00">google_dataproc_job.spark</text>
</g>
<!-- [root] google_dataproc_job.spark (expand)&#45;&gt;[root] google_dataproc_cluster.tstdataprocclus (expand) -->
<g id="edge16" class="edge">
<title>[root] google_dataproc_job.spark (expand)&#45;&gt;[root] google_dataproc_cluster.tstdataprocclus (expand)</title>
<path fill="none" stroke="black" d="M1342.27,-287.97C1371.04,-278.14 1407.39,-265.73 1437.67,-255.39"/>
<polygon fill="black" stroke="black" points="1438.94,-258.65 1447.27,-252.11 1436.68,-252.03 1438.94,-258.65"/>
</g>
<!-- [root] google_storage_bucket.tstdataprocbuck (expand)&#45;&gt;[root] provider[&quot;registry.terraform.io/hashicorp/google&quot;] -->
<g id="edge17" class="edge">
<title>[root] google_storage_bucket.tstdataprocbuck (expand)&#45;&gt;[root] provider[&quot;registry.terraform.io/hashicorp/google&quot;]</title>
<path fill="none" stroke="black" d="M1854.64,-144.99C1851.52,-144.65 1848.43,-144.31 1845.38,-144 1639.29,-122.73 1400.43,-107.46 1248.68,-98.93"/>
<polygon fill="black" stroke="black" points="1248.54,-95.41 1238.36,-98.35 1248.14,-102.4 1248.54,-95.41"/>
</g>
<!-- [root] var.bucket_name_dp -->
<g id="node12" class="node">
<title>[root] var.bucket_name_dp</title>
<polygon fill="none" stroke="black" points="2029.38,-108 1905.38,-108 1905.38,-72 2035.38,-72 2035.38,-102 2029.38,-108"/>
<polyline fill="none" stroke="black" points="2029.38,-108 2029.38,-102 "/>
<polyline fill="none" stroke="black" points="2035.38,-102 2029.38,-102 "/>
<text text-anchor="middle" x="1970.38" y="-86.3" font-family="Times,serif" font-size="14.00">var.bucket_name_dp</text>
</g>
<!-- [root] google_storage_bucket.tstdataprocbuck (expand)&#45;&gt;[root] var.bucket_name_dp -->
<g id="edge18" class="edge">
<title>[root] google_storage_bucket.tstdataprocbuck (expand)&#45;&gt;[root] var.bucket_name_dp</title>
<path fill="none" stroke="black" d="M1970.38,-143.7C1970.38,-135.98 1970.38,-126.71 1970.38,-118.11"/>
<polygon fill="black" stroke="black" points="1973.88,-118.1 1970.38,-108.1 1966.88,-118.1 1973.88,-118.1"/>
</g>
<!-- [root] google_storage_bucket.tstdataprocbuck (expand)&#45;&gt;[root] var.dataprocbuckloc -->
<g id="edge19" class="edge">
<title>[root] google_storage_bucket.tstdataprocbuck (expand)&#45;&gt;[root] var.dataprocbuckloc</title>
<path fill="none" stroke="black" d="M1854.65,-144.85C1851.53,-144.54 1848.44,-144.26 1845.38,-144 1394.09,-105.49 1273.37,-167.79 820.55,-107.98"/>
<polygon fill="black" stroke="black" points="820.84,-104.49 810.47,-106.64 819.92,-111.43 820.84,-104.49"/>
</g>
<!-- [root] var.cluster_location -->
<g id="node14" class="node">
<title>[root] var.cluster_location</title>
<polygon fill="none" stroke="black" points="1091.88,-36 974.88,-36 974.88,0 1097.88,0 1097.88,-30 1091.88,-36"/>
<polyline fill="none" stroke="black" points="1091.88,-36 1091.88,-30 "/>
<polyline fill="none" stroke="black" points="1097.88,-30 1091.88,-30 "/>
<text text-anchor="middle" x="1036.38" y="-14.3" font-family="Times,serif" font-size="14.00">var.cluster_location</text>
</g>
<!-- [root] provider[&quot;registry.terraform.io/hashicorp/google&quot;]&#45;&gt;[root] var.cluster_location -->
<g id="edge41" class="edge">
<title>[root] provider[&quot;registry.terraform.io/hashicorp/google&quot;]&#45;&gt;[root] var.cluster_location</title>
<path fill="none" stroke="black" d="M1081.7,-72.76C1074.47,-64.18 1065.43,-53.46 1057.34,-43.86"/>
<polygon fill="black" stroke="black" points="1059.94,-41.51 1050.82,-36.12 1054.59,-46.03 1059.94,-41.51"/>
</g>
<!-- [root] var.project -->
<g id="node18" class="node">
<title>[root] var.project</title>
<polygon fill="none" stroke="black" points="1184.38,-36 1116.38,-36 1116.38,0 1190.38,0 1190.38,-30 1184.38,-36"/>
<polyline fill="none" stroke="black" points="1184.38,-36 1184.38,-30 "/>
<polyline fill="none" stroke="black" points="1190.38,-30 1184.38,-30 "/>
<text text-anchor="middle" x="1153.38" y="-14.3" font-family="Times,serif" font-size="14.00">var.project</text>
</g>
<!-- [root] provider[&quot;registry.terraform.io/hashicorp/google&quot;]&#45;&gt;[root] var.project -->
<g id="edge42" class="edge">
<title>[root] provider[&quot;registry.terraform.io/hashicorp/google&quot;]&#45;&gt;[root] var.project</title>
<path fill="none" stroke="black" d="M1108.84,-72.76C1115.95,-64.18 1124.83,-53.46 1132.79,-43.86"/>
<polygon fill="black" stroke="black" points="1135.51,-46.06 1139.2,-36.12 1130.12,-41.59 1135.51,-46.06"/>
</g>
<!-- [root] meta.count&#45;boundary (EachMode fixup) -->
<g id="node21" class="node">
<title>[root] meta.count&#45;boundary (EachMode fixup)</title>
<ellipse fill="none" stroke="black" cx="1485.38" cy="-450" rx="176.27" ry="18"/>
<text text-anchor="middle" x="1485.38" y="-446.3" font-family="Times,serif" font-size="14.00">[root] meta.count&#45;boundary (EachMode fixup)</text>
</g>
<!-- [root] meta.count&#45;boundary (EachMode fixup)&#45;&gt;[root] google_compute_firewall.dataprocopen (expand) -->
<g id="edge20" class="edge">
<title>[root] meta.count&#45;boundary (EachMode fixup)&#45;&gt;[root] google_compute_firewall.dataprocopen (expand)</title>
<path fill="none" stroke="black" d="M1309.7,-448.52C1162.89,-445.34 966.87,-433.79 898.38,-396 884.87,-388.54 861.98,-356.12 846.53,-332.56"/>
<polygon fill="black" stroke="black" points="849.38,-330.52 841,-324.03 843.5,-334.33 849.38,-330.52"/>
</g>
<!-- [root] output.BigQuery_dataset_status (expand) -->
<g id="node22" class="node">
<title>[root] output.BigQuery_dataset_status (expand)</title>
<ellipse fill="none" stroke="black" cx="179.38" cy="-378" rx="179.27" ry="18"/>
<text text-anchor="middle" x="179.38" y="-374.3" font-family="Times,serif" font-size="14.00">[root] output.BigQuery_dataset_status (expand)</text>
</g>
<!-- [root] meta.count&#45;boundary (EachMode fixup)&#45;&gt;[root] output.BigQuery_dataset_status (expand) -->
<g id="edge21" class="edge">
<title>[root] meta.count&#45;boundary (EachMode fixup)&#45;&gt;[root] output.BigQuery_dataset_status (expand)</title>
<path fill="none" stroke="black" d="M1321.07,-443.38C1103.15,-435.43 706.61,-419.22 368.38,-396 350.84,-394.8 332.4,-393.35 314.2,-391.83"/>
<polygon fill="black" stroke="black" points="314.38,-388.33 304.12,-390.97 313.79,-395.31 314.38,-388.33"/>
</g>
<!-- [root] output.dataproc_cluster_status (expand) -->
<g id="node23" class="node">
<title>[root] output.dataproc_cluster_status (expand)</title>
<ellipse fill="none" stroke="black" cx="1972.38" cy="-306" rx="174.37" ry="18"/>
<text text-anchor="middle" x="1972.38" y="-302.3" font-family="Times,serif" font-size="14.00">[root] output.dataproc_cluster_status (expand)</text>
</g>
<!-- [root] meta.count&#45;boundary (EachMode fixup)&#45;&gt;[root] output.dataproc_cluster_status (expand) -->
<g id="edge22" class="edge">
<title>[root] meta.count&#45;boundary (EachMode fixup)&#45;&gt;[root] output.dataproc_cluster_status (expand)</title>
<path fill="none" stroke="black" d="M1636.48,-440.74C1764.52,-432.31 1931.01,-417.42 1954.38,-396 1971.13,-380.65 1974.73,-354.38 1974.67,-334.35"/>
<polygon fill="black" stroke="black" points="1978.17,-334.13 1974.34,-324.25 1971.17,-334.36 1978.17,-334.13"/>
</g>
<!-- [root] output.dataproc_master_status (expand) -->
<g id="node24" class="node">
<title>[root] output.dataproc_master_status (expand)</title>
<ellipse fill="none" stroke="black" cx="1567.38" cy="-306" rx="174.67" ry="18"/>
<text text-anchor="middle" x="1567.38" y="-302.3" font-family="Times,serif" font-size="14.00">[root] output.dataproc_master_status (expand)</text>
</g>
<!-- [root] meta.count&#45;boundary (EachMode fixup)&#45;&gt;[root] output.dataproc_master_status (expand) -->
<g id="edge23" class="edge">
<title>[root] meta.count&#45;boundary (EachMode fixup)&#45;&gt;[root] output.dataproc_master_status (expand)</title>
<path fill="none" stroke="black" d="M1513,-432.01C1525.64,-422.85 1539.7,-410.46 1548.38,-396 1559.6,-377.32 1564.25,-352.93 1566.15,-334.41"/>
<polygon fill="black" stroke="black" points="1569.65,-334.52 1566.98,-324.27 1562.67,-333.95 1569.65,-334.52"/>
</g>
<!-- [root] output.dataproc_worker_status (expand) -->
<g id="node25" class="node">
<title>[root] output.dataproc_worker_status (expand)</title>
<ellipse fill="none" stroke="black" cx="1770.38" cy="-378" rx="175.47" ry="18"/>
<text text-anchor="middle" x="1770.38" y="-374.3" font-family="Times,serif" font-size="14.00">[root] output.dataproc_worker_status (expand)</text>
</g>
<!-- [root] meta.count&#45;boundary (EachMode fixup)&#45;&gt;[root] output.dataproc_worker_status (expand) -->
<g id="edge24" class="edge">
<title>[root] meta.count&#45;boundary (EachMode fixup)&#45;&gt;[root] output.dataproc_worker_status (expand)</title>
<path fill="none" stroke="black" d="M1549.7,-433.2C1593.14,-422.53 1650.61,-408.42 1696.02,-397.26"/>
<polygon fill="black" stroke="black" points="1696.93,-400.64 1705.81,-394.86 1695.26,-393.85 1696.93,-400.64"/>
</g>
<!-- [root] output.google_bucket_status (expand) -->
<g id="node26" class="node">
<title>[root] output.google_bucket_status (expand)</title>
<ellipse fill="none" stroke="black" cx="2310.38" cy="-234" rx="167.87" ry="18"/>
<text text-anchor="middle" x="2310.38" y="-230.3" font-family="Times,serif" font-size="14.00">[root] output.google_bucket_status (expand)</text>
</g>
<!-- [root] meta.count&#45;boundary (EachMode fixup)&#45;&gt;[root] output.google_bucket_status (expand) -->
<g id="edge25" class="edge">
<title>[root] meta.count&#45;boundary (EachMode fixup)&#45;&gt;[root] output.google_bucket_status (expand)</title>
<path fill="none" stroke="black" d="M1650.39,-443.69C1797.99,-437.22 2002.41,-423.55 2078.38,-396 2163.07,-365.29 2245.71,-295.72 2285.61,-258.89"/>
<polygon fill="black" stroke="black" points="2288.09,-261.37 2293.01,-251.99 2283.31,-256.25 2288.09,-261.37"/>
</g>
<!-- [root] output.logs_directory_browser_url (expand) -->
<g id="node27" class="node">
<title>[root] output.logs_directory_browser_url (expand)</title>
<ellipse fill="none" stroke="black" cx="1935.38" cy="-234" rx="189.27" ry="18"/>
<text text-anchor="middle" x="1935.38" y="-230.3" font-family="Times,serif" font-size="14.00">[root] output.logs_directory_browser_url (expand)</text>
</g>
<!-- [root] meta.count&#45;boundary (EachMode fixup)&#45;&gt;[root] output.logs_directory_browser_url (expand) -->
<g id="edge26" class="edge">
<title>[root] meta.count&#45;boundary (EachMode fixup)&#45;&gt;[root] output.logs_directory_browser_url (expand)</title>
<path fill="none" stroke="black" d="M1651.59,-443.91C1831.46,-434.2 2100.11,-405.98 2155.38,-324 2183.14,-282.83 2136,-260.69 2078.33,-248.8"/>
<polygon fill="black" stroke="black" points="2078.71,-245.31 2068.23,-246.84 2077.37,-252.18 2078.71,-245.31"/>
</g>
<!-- [root] output.pyspark_covid19status (expand) -->
<g id="node28" class="node">
<title>[root] output.pyspark_covid19status (expand)</title>
<ellipse fill="none" stroke="black" cx="1079.38" cy="-378" rx="172.47" ry="18"/>
<text text-anchor="middle" x="1079.38" y="-374.3" font-family="Times,serif" font-size="14.00">[root] output.pyspark_covid19status (expand)</text>
</g>
<!-- [root] meta.count&#45;boundary (EachMode fixup)&#45;&gt;[root] output.pyspark_covid19status (expand) -->
<g id="edge27" class="edge">
<title>[root] meta.count&#45;boundary (EachMode fixup)&#45;&gt;[root] output.pyspark_covid19status (expand)</title>
<path fill="none" stroke="black" d="M1399.78,-434.24C1333.81,-422.87 1242.64,-407.15 1174.42,-395.39"/>
<polygon fill="black" stroke="black" points="1174.97,-391.93 1164.52,-393.68 1173.78,-398.83 1174.97,-391.93"/>
</g>
<!-- [root] output.spark_status (expand) -->
<g id="node29" class="node">
<title>[root] output.spark_status (expand)</title>
<ellipse fill="none" stroke="black" cx="1404.38" cy="-378" rx="135.38" ry="18"/>
<text text-anchor="middle" x="1404.38" y="-374.3" font-family="Times,serif" font-size="14.00">[root] output.spark_status (expand)</text>
</g>
<!-- [root] meta.count&#45;boundary (EachMode fixup)&#45;&gt;[root] output.spark_status (expand) -->
<g id="edge28" class="edge">
<title>[root] meta.count&#45;boundary (EachMode fixup)&#45;&gt;[root] output.spark_status (expand)</title>
<path fill="none" stroke="black" d="M1465.78,-432.05C1455.6,-423.26 1443.01,-412.38 1431.88,-402.76"/>
<polygon fill="black" stroke="black" points="1433.95,-399.92 1424.09,-396.03 1429.37,-405.22 1433.95,-399.92"/>
</g>
<!-- [root] output.BigQuery_dataset_status (expand)&#45;&gt;[root] google_bigquery_table.default (expand) -->
<g id="edge29" class="edge">
<title>[root] output.BigQuery_dataset_status (expand)&#45;&gt;[root] google_bigquery_table.default (expand)</title>
<path fill="none" stroke="black" d="M267.64,-362.33C335.2,-351.09 428.48,-335.58 499.09,-323.84"/>
<polygon fill="black" stroke="black" points="500.05,-327.23 509.34,-322.14 498.9,-320.33 500.05,-327.23"/>
</g>
<!-- [root] output.dataproc_cluster_status (expand)&#45;&gt;[root] google_dataproc_cluster.tstdataprocclus (expand) -->
<g id="edge30" class="edge">
<title>[root] output.dataproc_cluster_status (expand)&#45;&gt;[root] google_dataproc_cluster.tstdataprocclus (expand)</title>
<path fill="none" stroke="black" d="M1876.83,-290.92C1803.83,-280.16 1702.56,-265.24 1623,-253.51"/>
<polygon fill="black" stroke="black" points="1623.32,-250.02 1612.92,-252.03 1622.3,-256.95 1623.32,-250.02"/>
</g>
<!-- [root] output.dataproc_master_status (expand)&#45;&gt;[root] google_dataproc_cluster.tstdataprocclus (expand) -->
<g id="edge31" class="edge">
<title>[root] output.dataproc_master_status (expand)&#45;&gt;[root] google_dataproc_cluster.tstdataprocclus (expand)</title>
<path fill="none" stroke="black" d="M1550.44,-288.05C1541.88,-279.5 1531.34,-268.96 1521.92,-259.54"/>
<polygon fill="black" stroke="black" points="1524.21,-256.87 1514.66,-252.28 1519.26,-261.82 1524.21,-256.87"/>
</g>
<!-- [root] output.dataproc_worker_status (expand)&#45;&gt;[root] google_dataproc_cluster.tstdataprocclus (expand) -->
<g id="edge32" class="edge">
<title>[root] output.dataproc_worker_status (expand)&#45;&gt;[root] google_dataproc_cluster.tstdataprocclus (expand)</title>
<path fill="none" stroke="black" d="M1771.85,-359.68C1772.53,-339.59 1770.31,-306.84 1751.38,-288 1732.71,-269.41 1678.08,-256.75 1624.24,-248.47"/>
<polygon fill="black" stroke="black" points="1624.61,-244.99 1614.2,-246.98 1623.58,-251.91 1624.61,-244.99"/>
</g>
<!-- [root] output.google_bucket_status (expand)&#45;&gt;[root] google_storage_bucket.tstdataprocbuck (expand) -->
<g id="edge33" class="edge">
<title>[root] output.google_bucket_status (expand)&#45;&gt;[root] google_storage_bucket.tstdataprocbuck (expand)</title>
<path fill="none" stroke="black" d="M2236.61,-217.81C2185.68,-207.33 2117.57,-193.3 2062.99,-182.07"/>
<polygon fill="black" stroke="black" points="2063.46,-178.59 2052.96,-180 2062.05,-185.45 2063.46,-178.59"/>
</g>
<!-- [root] output.logs_directory_browser_url (expand)&#45;&gt;[root] google_storage_bucket.tstdataprocbuck (expand) -->
<g id="edge34" class="edge">
<title>[root] output.logs_directory_browser_url (expand)&#45;&gt;[root] google_storage_bucket.tstdataprocbuck (expand)</title>
<path fill="none" stroke="black" d="M1944.04,-215.7C1948.02,-207.73 1952.83,-198.1 1957.25,-189.26"/>
<polygon fill="black" stroke="black" points="1960.49,-190.61 1961.83,-180.1 1954.23,-187.48 1960.49,-190.61"/>
</g>
<!-- [root] output.pyspark_covid19status (expand)&#45;&gt;[root] google_dataproc_job.pyspark_covid19 (expand) -->
<g id="edge35" class="edge">
<title>[root] output.pyspark_covid19status (expand)&#45;&gt;[root] google_dataproc_job.pyspark_covid19 (expand)</title>
<path fill="none" stroke="black" d="M1079.14,-359.7C1079.03,-351.98 1078.89,-342.71 1078.77,-334.11"/>
<polygon fill="black" stroke="black" points="1082.27,-334.05 1078.63,-324.1 1075.27,-334.15 1082.27,-334.05"/>
</g>
<!-- [root] output.spark_status (expand)&#45;&gt;[root] google_dataproc_job.spark (expand) -->
<g id="edge36" class="edge">
<title>[root] output.spark_status (expand)&#45;&gt;[root] google_dataproc_job.spark (expand)</title>
<path fill="none" stroke="black" d="M1377.56,-360.23C1362.81,-351.02 1344.33,-339.47 1328.35,-329.48"/>
<polygon fill="black" stroke="black" points="1330.11,-326.45 1319.77,-324.12 1326.4,-332.38 1330.11,-326.45"/>
</g>
<!-- [root] provider[&quot;registry.terraform.io/hashicorp/google&quot;] (close) -->
<g id="node30" class="node">
<title>[root] provider[&quot;registry.terraform.io/hashicorp/google&quot;] (close)</title>
<ellipse fill="none" stroke="black" cx="614.38" cy="-378" rx="237.46" ry="18"/>
<text text-anchor="middle" x="614.38" y="-374.3" font-family="Times,serif" font-size="14.00">[root] provider[&quot;registry.terraform.io/hashicorp/google&quot;] (close)</text>
</g>
<!-- [root] provider[&quot;registry.terraform.io/hashicorp/google&quot;] (close)&#45;&gt;[root] google_bigquery_table.default (expand) -->
<g id="edge37" class="edge">
<title>[root] provider[&quot;registry.terraform.io/hashicorp/google&quot;] (close)&#45;&gt;[root] google_bigquery_table.default (expand)</title>
<path fill="none" stroke="black" d="M610.92,-359.7C609.38,-351.98 607.53,-342.71 605.81,-334.11"/>
<polygon fill="black" stroke="black" points="609.2,-333.22 603.8,-324.1 602.33,-334.6 609.2,-333.22"/>
</g>
<!-- [root] provider[&quot;registry.terraform.io/hashicorp/google&quot;] (close)&#45;&gt;[root] google_compute_firewall.dataprocopen (expand) -->
<g id="edge38" class="edge">
<title>[root] provider[&quot;registry.terraform.io/hashicorp/google&quot;] (close)&#45;&gt;[root] google_compute_firewall.dataprocopen (expand)</title>
<path fill="none" stroke="black" d="M665.57,-360.41C696.21,-350.48 735.38,-337.79 767.84,-327.27"/>
<polygon fill="black" stroke="black" points="769.25,-330.49 777.68,-324.08 767.09,-323.83 769.25,-330.49"/>
</g>
<!-- [root] provider[&quot;registry.terraform.io/hashicorp/google&quot;] (close)&#45;&gt;[root] google_dataproc_job.pyspark_covid19 (expand) -->
<g id="edge39" class="edge">
<title>[root] provider[&quot;registry.terraform.io/hashicorp/google&quot;] (close)&#45;&gt;[root] google_dataproc_job.pyspark_covid19 (expand)</title>
<path fill="none" stroke="black" d="M715.92,-361.68C786.5,-351.03 880.94,-336.79 955.73,-325.5"/>
<polygon fill="black" stroke="black" points="956.32,-328.96 965.68,-324 955.27,-322.03 956.32,-328.96"/>
</g>
<!-- [root] provider[&quot;registry.terraform.io/hashicorp/google&quot;] (close)&#45;&gt;[root] google_dataproc_job.spark (expand) -->
<g id="edge40" class="edge">
<title>[root] provider[&quot;registry.terraform.io/hashicorp/google&quot;] (close)&#45;&gt;[root] google_dataproc_job.spark (expand)</title>
<path fill="none" stroke="black" d="M786.98,-365.61C901.32,-357.05 1054.79,-343.64 1200.18,-323.95"/>
<polygon fill="black" stroke="black" points="1200.75,-327.4 1210.19,-322.58 1199.8,-320.46 1200.75,-327.4"/>
</g>
<!-- [root] root -->
<g id="node31" class="node">
<title>[root] root</title>
<ellipse fill="none" stroke="black" cx="1090.38" cy="-522" rx="47.39" ry="18"/>
<text text-anchor="middle" x="1090.38" y="-518.3" font-family="Times,serif" font-size="14.00">[root] root</text>
</g>
<!-- [root] root&#45;&gt;[root] meta.count&#45;boundary (EachMode fixup) -->
<g id="edge43" class="edge">
<title>[root] root&#45;&gt;[root] meta.count&#45;boundary (EachMode fixup)</title>
<path fill="none" stroke="black" d="M1132.66,-513.51C1193.98,-502.64 1309.26,-482.21 1391.33,-467.67"/>
<polygon fill="black" stroke="black" points="1392.18,-471.07 1401.42,-465.88 1390.96,-464.18 1392.18,-471.07"/>
</g>
<!-- [root] root&#45;&gt;[root] provider[&quot;registry.terraform.io/hashicorp/google&quot;] (close) -->
<g id="edge44" class="edge">
<title>[root] root&#45;&gt;[root] provider[&quot;registry.terraform.io/hashicorp/google&quot;] (close)</title>
<path fill="none" stroke="black" d="M1054.22,-510.21C974.22,-486.35 781.33,-428.8 679.64,-398.47"/>
<polygon fill="black" stroke="black" points="680.38,-395.04 669.8,-395.53 678.38,-401.74 680.38,-395.04"/>
</g>
</g>
</svg>
